<svg xmlns="http://www.w3.org/2000/svg" width="51" height="51" version="1.1" viewBox="0 0 51 51"><g transform="translate(-34.6 -37.4)"><g id="a"><rect id="b" x="34.6" y="37.4" width="51" height="51"/><rect id="c" x="39" y="78.8" width="19.1" height="3.2" fill="#fff"/><g id="d" fill="#fff"><path id="e" d="m38.8 50.8 1.5-1.4c0.4 0.5 0.8 0.8 1.3 0.8 0.6 0 0.9-0.4 0.9-1.2v-5.3h2.3v5.3c0 1-0.3 1.8-0.8 2.3s-1.3 0.8-2.3 0.8c-1.5 0.1-2.3-0.5-2.9-1.3z"/><path id="f" d="m45.3 43.8h6.7v1.9h-4.4v1.3h4v1.8h-4v1.3h4.5v2h-6.7z"/><path id="g" d="m55 45.8h-2.5v-2h7.3v2h-2.5v6.3h-2.3z"/><path id="h" d="m39 54h4.3c1 0 1.8 0.3 2.3 0.7 0.3 0.3 0.5 0.8 0.5 1.4 0 1-0.5 1.5-1.3 1.9 1 0.3 1.6 0.9 1.6 2 0 1.4-1.2 2.3-3.1 2.3h-4.3zm4.8 2.6c0-0.5-0.4-0.7-1-0.7h-1.5v1.5h1.4c0.7-0.1 1.1-0.3 1.1-0.8zm-0.8 2.4h-1.8v1.5h1.8c0.7 0 1.1-0.3 1.1-0.8s-0.4-0.7-1.1-0.7z"/><path id="i" d="m46.8 54h3.9c1.3 0 2.1 0.3 2.7 0.9 0.5 0.5 0.7 1.1 0.7 1.9 0 1.3-0.7 2.1-1.7 2.6l2 2.9h-2.6l-1.7-2.5h-1v2.5h-2.3zm3.8 4c0.8 0 1.2-0.4 1.2-1 0-0.7-0.5-1-1.2-1h-1.5v2z"/><path id="j" d="m56.8 54h2.2l3.5 8.4h-2.5l-0.6-1.5h-3.2l-0.6 1.5h-2.4zm2 5-0.9-2.3-0.9 2.3z"/><path id="k" d="m62.8 54h2.3v8.3h-2.3z"/><path id="l" d="m65.7 54h2.1l3.4 4.4v-4.4h2.3v8.3h-2l-3.5-4.5v4.6h-2.3z"/><path id="m" d="m73.7 61.1 1.3-1.5c0.8 0.7 1.7 1 2.7 1 0.6 0 1-0.2 1-0.6s-0.3-0.5-1.4-0.8c-1.8-0.4-3.1-0.9-3.1-2.6 0-1.5 1.2-2.7 3.2-2.7 1.4 0 2.5 0.4 3.4 1.1l-1.2 1.6c-0.8-0.5-1.6-0.8-2.3-0.8-0.6 0-0.8 0.2-0.8 0.5 0 0.4 0.3 0.5 1.4 0.8 1.9 0.4 3.1 1 3.1 2.6 0 1.7-1.3 2.7-3.4 2.7-1.5 0.1-2.9-0.4-3.9-1.3z"/></g></g></g></svg>